<svg width="44" height="44" viewBox="0 0 44 44" fill="none" xmlns="http://www.w3.org/2000/svg">
<path d="M43.6418 21.9234C43.6418 9.98597 33.9766 0.320801 22.0391 0.320801C10.1017 0.320801 0.436523 9.98597 0.436523 21.9234C0.436523 32.7087 8.34148 41.6378 18.6787 43.27V28.1642H13.1741V21.9234H18.6787V17.1548C18.6787 11.7462 21.8791 8.76982 26.8077 8.76982C29.176 8.76982 31.6403 9.18588 31.6403 9.18588V14.4985H28.92C26.2316 14.4985 25.3995 16.1627 25.3995 17.8589V21.9234H31.3843L30.4242 28.1642H25.3995V43.27C35.7368 41.6378 43.6418 32.7087 43.6418 21.9234Z" fill="white"/>
<path d="M30.4559 28.1639L31.416 21.9231H25.3993V17.8586C25.3993 16.1624 26.2314 14.4982 28.9197 14.4982H31.6401V9.18558C31.6401 9.18558 29.1758 8.76953 26.8075 8.76953C21.8789 8.76953 18.6785 11.7459 18.6785 17.1545V21.9231H13.1738V28.1639H18.6785V43.2697C19.7666 43.4297 20.9188 43.5257 22.0389 43.5257C23.191 43.5257 24.3112 43.4297 25.3993 43.2697V28.1639H30.4559Z" fill="#B61414"/>
</svg>
