<svg width="44" height="44" viewBox="0 0 44 44" fill="none" xmlns="http://www.w3.org/2000/svg">
<path d="M22.0391 43.8713C33.9699 43.8713 43.6418 34.1994 43.6418 22.2686C43.6418 10.3378 33.9699 0.666016 22.0391 0.666016C10.1083 0.666016 0.436523 10.3378 0.436523 22.2686C0.436523 34.1994 10.1083 43.8713 22.0391 43.8713Z" fill="white"/>
<path d="M22.0391 11.131C25.6556 11.131 26.1036 11.131 27.5438 11.1951C28.856 11.2591 29.5921 11.4831 30.0721 11.6751C30.7122 11.9311 31.1603 12.2192 31.6403 12.6992C32.1204 13.1793 32.4084 13.6273 32.6644 14.2674C32.8565 14.7475 33.0805 15.4516 33.1445 16.7957C33.2085 18.2359 33.2085 18.652 33.2085 22.3004C33.2085 25.9488 33.2085 26.3649 33.1445 27.8051C33.0805 29.1172 32.8565 29.8533 32.6644 30.3334C32.4084 30.9735 32.1204 31.4215 31.6403 31.9016C31.1603 32.3816 30.7122 32.6697 30.0721 32.9257C29.5921 33.1177 28.888 33.3417 27.5438 33.4057C26.1036 33.4698 25.6876 33.4698 22.0391 33.4698C18.4227 33.4698 17.9747 33.4698 16.5345 33.4057C15.2223 33.3417 14.4862 33.1177 14.0062 32.9257C13.3661 32.6697 12.918 32.3816 12.438 31.9016C11.9579 31.4215 11.6699 30.9735 11.4139 30.3334C11.2218 29.8533 10.9978 29.1492 10.9338 27.8051C10.8698 26.3649 10.8698 25.9488 10.8698 22.3004C10.8698 18.652 10.8698 18.2359 10.9338 16.7957C10.9978 15.4836 11.2218 14.7475 11.4139 14.2674C11.6699 13.6273 11.9579 13.1793 12.438 12.6992C12.918 12.2192 13.3661 11.9311 14.0062 11.6751C14.4862 11.4831 15.1903 11.2591 16.5345 11.1951C17.9747 11.131 18.4227 11.131 22.0391 11.131ZM22.0391 8.66675C18.3587 8.66675 17.8786 8.66675 16.4385 8.76276C14.9983 8.82677 14.0062 9.05079 13.1421 9.40284C12.246 9.75488 11.4779 10.2029 10.7418 10.971C9.97369 11.7391 9.52564 12.4752 9.1736 13.3713C8.82155 14.2354 8.59753 15.2275 8.53352 16.6677C8.46951 18.1079 8.4375 18.588 8.4375 22.2684C8.4375 25.9488 8.43751 26.4289 8.53352 27.8691C8.59753 29.3093 8.82155 30.3014 9.1736 31.1655C9.52564 32.0616 9.97369 32.8297 10.7418 33.5658C11.5099 34.3339 12.246 34.7819 13.1421 35.134C14.0062 35.486 14.9983 35.71 16.4385 35.774C17.8786 35.838 18.3587 35.87 22.0391 35.87C25.7196 35.87 26.1997 35.87 27.6398 35.774C29.08 35.71 30.0721 35.486 30.9362 35.134C31.8323 34.7819 32.6004 34.3339 33.3365 33.5658C34.1046 32.7977 34.5527 32.0616 34.9047 31.1655C35.2568 30.3014 35.4808 29.3093 35.5448 27.8691C35.6088 26.4289 35.6408 25.9488 35.6408 22.2684C35.6408 18.588 35.6408 18.1079 35.5448 16.6677C35.4808 15.2275 35.2568 14.2354 34.9047 13.3713C34.5527 12.4752 34.1046 11.7071 33.3365 10.971C32.5684 10.2029 31.8323 9.75488 30.9362 9.40284C30.0721 9.05079 29.08 8.82677 27.6398 8.76276C26.1997 8.66675 25.7516 8.66675 22.0391 8.66675Z" fill="#B61414"/>
<path d="M22.0393 15.2917C18.1669 15.2917 15.0625 18.4281 15.0625 22.2686C15.0625 26.1091 18.1989 29.2454 22.0393 29.2454C25.9118 29.2454 29.0162 26.1091 29.0162 22.2686C29.0162 18.4281 25.9118 15.2917 22.0393 15.2917ZM22.0393 26.8131C19.543 26.8131 17.4948 24.7969 17.4948 22.2686C17.4948 19.7403 19.511 17.724 22.0393 17.724C24.5356 17.724 26.5839 19.7403 26.5839 22.2686C26.5839 24.7969 24.5676 26.8131 22.0393 26.8131Z" fill="#B61414"/>
<path d="M29.3041 16.636C30.2055 16.636 30.9363 15.9052 30.9363 15.0038C30.9363 14.1023 30.2055 13.3716 29.3041 13.3716C28.4026 13.3716 27.6719 14.1023 27.6719 15.0038C27.6719 15.9052 28.4026 16.636 29.3041 16.636Z" fill="#B61414"/>
</svg>
