<svg width="44" height="45" viewBox="0 0 44 45" fill="none" xmlns="http://www.w3.org/2000/svg">
<path d="M22.0391 44.0436C33.9699 44.0436 43.6418 34.3718 43.6418 22.441C43.6418 10.5102 33.9699 0.838379 22.0391 0.838379C10.1083 0.838379 0.436523 10.5102 0.436523 22.441C0.436523 34.3718 10.1083 44.0436 22.0391 44.0436Z" fill="white"/>
<path d="M35.8327 15.5282C35.5126 14.2801 34.5205 13.32 33.2724 12.9679C31.0321 12.3599 22.007 12.3599 22.007 12.3599C22.007 12.3599 13.0139 12.3599 10.7416 12.9679C9.49347 13.288 8.53336 14.2801 8.18131 15.5282C7.57324 17.7685 7.57324 22.4731 7.57324 22.4731C7.57324 22.4731 7.57324 27.1457 8.18131 29.4179C8.50135 30.6661 9.49347 31.6262 10.7416 31.9782C12.9819 32.5863 22.007 32.5863 22.007 32.5863C22.007 32.5863 31.0001 32.5863 33.2724 31.9782C34.5205 31.6582 35.4806 30.6661 35.8327 29.4179C36.4407 27.1777 36.4407 22.4731 36.4407 22.4731C36.4407 22.4731 36.4407 17.7685 35.8327 15.5282ZM19.1586 26.7616V18.1206L26.6476 22.4411L19.1586 26.7616Z" fill="#B61414"/>
</svg>
