<svg width="40" height="41" viewBox="0 0 40 41" fill="none" xmlns="http://www.w3.org/2000/svg">
<circle cx="20" cy="20.5" r="19" transform="rotate(-180 20 20.5)" stroke="#970000" stroke-width="2"/>
<path d="M14.2424 20.8838L14.2395 20.8809C14.1951 20.8349 14.1576 20.778 14.1314 20.7123C14.1051 20.6466 14.0911 20.5747 14.0911 20.5012C14.0911 20.4277 14.1051 20.3558 14.1314 20.2901C14.1576 20.2244 14.1951 20.1675 14.2395 20.1215L14.2423 20.1186L21.5031 12.5491L21.5059 12.5461C21.55 12.4997 21.6001 12.4653 21.6523 12.4426C21.7044 12.42 21.7586 12.409 21.8124 12.409C21.8661 12.409 21.9204 12.42 21.9725 12.4426C22.0246 12.4653 22.0748 12.4997 22.1189 12.5461L22.1189 12.5461L22.1246 12.552C22.169 12.598 22.2064 12.6549 22.2327 12.7206L23.1613 12.3495L22.2327 12.7206C22.2589 12.7863 22.273 12.8582 22.273 12.9317C22.273 13.0052 22.2589 13.0771 22.2327 13.1428L23.1613 13.5139L22.2327 13.1428C22.2064 13.2085 22.169 13.2654 22.1246 13.3114L22.1225 13.3135L15.8783 19.8081L15.212 20.5012L15.8783 21.1943L22.1217 27.6881C22.1218 27.6882 22.1219 27.6883 22.122 27.6884C22.2126 27.783 22.2705 27.9198 22.2705 28.0707C22.2705 28.1447 22.2565 28.217 22.2301 28.2832C22.2039 28.3494 22.1664 28.4068 22.1217 28.4534C22.0323 28.5466 21.9201 28.5908 21.8124 28.5908C21.7582 28.5908 21.7034 28.5797 21.6509 28.5571C21.5982 28.5343 21.5476 28.4998 21.503 28.4534L14.2423 20.8838L14.2424 20.8838Z" fill="#970000" stroke="#970000" stroke-width="2"/>
</svg>
