<svg width="25" height="38" viewBox="0 0 25 38" fill="none" xmlns="http://www.w3.org/2000/svg">
<path d="M12.5 0C5.595 0 0 5.29718 0 11.8587C0 23.204 12.5 38 12.5 38C12.5 38 25 23.2016 25 11.8587C25 5.29956 19.405 0 12.5 0ZM12.5 18.4201C10.7098 18.4201 8.9929 17.7441 7.72703 16.5408C6.46116 15.3375 5.75 13.7054 5.75 12.0036C5.75 10.3019 6.46116 8.6698 7.72703 7.46647C8.9929 6.26314 10.7098 5.58712 12.5 5.58712C14.2902 5.58712 16.0071 6.26314 17.273 7.46647C18.5388 8.6698 19.25 10.3019 19.25 12.0036C19.25 13.7054 18.5388 15.3375 17.273 16.5408C16.0071 17.7441 14.2902 18.4201 12.5 18.4201Z" fill="#970000"/>
</svg>
