<svg width="173" height="53" viewBox="0 0 173 53" fill="none" xmlns="http://www.w3.org/2000/svg">
<path d="M66.0722 23.1718H58.1226C56.6836 23.1718 55.5264 24.3399 55.5264 25.7699V28.2069C55.5264 29.647 56.6936 30.805 58.1226 30.805H66.0722C67.5111 30.805 68.6684 29.6369 68.6684 28.2069V25.7699C68.6684 24.3298 67.5011 23.1718 66.0722 23.1718Z" fill="white"/>
<path d="M92.0441 13.8165L84.3461 30.2109C84.2153 30.4929 83.8027 30.4929 83.6719 30.2109L75.9739 13.8165C75.5412 12.9001 74.6255 12.326 73.6192 12.326H71.1135C69.2117 12.326 67.9538 14.3099 68.7589 16.0319L80.1499 40.2409C80.5826 41.1573 81.4983 41.7313 82.5046 41.7313H85.5134C86.5197 41.7313 87.4354 41.1473 87.8681 40.2409L99.2591 16.0319C100.074 14.3099 98.8164 12.326 96.9045 12.326H94.3988C93.3925 12.326 92.4768 12.9101 92.0441 13.8165Z" fill="white"/>
<path d="M132.778 27.784V38.962C132.778 40.402 133.946 41.5601 135.375 41.5601H137.981C139.42 41.5601 140.577 40.392 140.577 38.962V27.784C140.577 25.7095 141.332 23.8867 142.801 22.3863C143.817 21.3893 144.974 20.7247 146.262 20.3924C147.42 20.1003 148.235 19.0631 148.235 17.8748V15.186C148.235 13.5748 146.776 12.326 145.196 12.6181C142.207 13.182 139.561 14.612 137.317 16.8778C134.308 19.8687 132.778 23.5343 132.778 27.7739" fill="white"/>
<path d="M168.984 12.4872H166.66C166.398 12.4872 166.187 12.2757 166.187 12.0139V4.77331C166.187 3.33326 165.02 2.17517 163.591 2.17517H160.984C159.545 2.17517 158.388 3.34333 158.388 4.77331V12.0139C158.388 12.2757 158.177 12.4872 157.905 12.4872H152.974C151.535 12.4872 150.378 13.6553 150.378 15.0853V17.6935C150.378 19.1336 151.545 20.2916 152.974 20.2916H157.905C158.167 20.2916 158.388 20.5031 158.388 20.7649V39.0929C158.388 40.5329 159.555 41.691 160.984 41.691H163.591C165.03 41.691 166.187 40.5229 166.187 39.0929V20.7649C166.187 20.5031 166.398 20.2916 166.66 20.2916H170.232C172.144 20.2916 173.402 18.2977 172.577 16.5656L171.329 13.9574C170.896 13.0511 169.991 12.4771 168.984 12.4771" fill="white"/>
<path d="M127.978 29.2643C129.206 29.2643 130.202 28.2573 130.202 27.0388V26.9683C130.202 26.0015 130.112 25.065 129.931 24.1486C128.612 17.331 122.625 12.1851 115.43 12.1851C108.235 12.1851 102.248 17.331 100.93 24.1486C100.759 25.065 100.658 26.0015 100.658 26.9683C100.658 27.7537 100.718 28.5191 100.839 29.2643C100.96 30.0095 101.131 30.7446 101.352 31.4495C103.254 37.4112 108.829 41.7414 115.42 41.7414C120.663 41.7414 125.272 39.0023 127.888 34.8735C128.834 33.3931 127.757 31.4495 126.006 31.4495H122.112C121.448 31.4495 120.814 31.7013 120.331 32.1645C119.053 33.373 117.322 34.1182 115.42 34.1182C113.176 34.1182 111.163 33.0809 109.855 31.4495C109.332 30.805 108.92 30.0598 108.648 29.2643H127.958H127.978ZM108.859 24.1486C109.956 21.6008 112.482 19.8083 115.43 19.8083C118.379 19.8083 120.914 21.5907 122.001 24.1486H108.859Z" fill="white"/>
<path d="M52.4271 2.59814C52.4271 1.15808 51.2598 0 49.8309 0H47.5366C46.0976 0 44.9404 1.16816 44.9404 2.59814V14.6422C42.8876 13.5143 40.5429 12.8799 38.0373 12.8799C30.3896 12.8799 26.5255 18.197 23.6173 24.491C21.8161 28.3882 20.3067 33.5945 15.6577 34.3901C11.5823 35.0849 7.66784 32.1847 7.23514 28.0659C6.78231 23.7357 10.1634 20.0802 14.3998 20.0802C15.8891 20.0802 17.2778 20.5333 18.4249 21.3188C19.8438 22.2755 21.7859 21.7519 22.6111 20.2614L23.2148 19.1739C23.9695 17.8144 23.557 16.1024 22.2689 15.2464C20.0048 13.756 17.2979 12.89 14.3898 12.89C6.62131 12.8799 0 19.5062 0 27.2804C0 35.0547 6.44018 41.681 14.3898 41.681C18.0426 41.681 21.5847 40.2208 24.2312 37.7133C27.2802 34.8231 28.3972 30.8755 30.0575 27.1395C30.299 26.5957 30.5506 26.0619 30.8122 25.5282C31.1845 24.8032 31.5468 24.1083 31.9594 23.4739C31.9694 23.494 31.9896 23.5242 31.9896 23.5444C33.1367 21.8526 34.616 20.5434 36.7694 20.1708C37.8763 19.9795 38.9731 20.06 39.9895 20.3622C40.1605 20.4125 40.3316 20.4629 40.5027 20.5233C40.5832 20.5535 40.6536 20.5837 40.7341 20.6139C40.7744 20.624 40.8146 20.6441 40.8448 20.6643C41.4788 20.9362 42.0725 21.2987 42.6058 21.7317C44.3366 23.1818 45.3529 25.4275 45.2221 27.7034C45.2221 27.8242 45.202 27.9552 45.1919 28.076C45.0812 29.0327 44.7794 29.9491 44.3064 30.7849C44.3064 30.7849 44.3165 30.7849 44.3265 30.7849C43.0989 32.9903 40.7442 34.4807 38.0373 34.4807C36.548 34.4807 35.1593 34.0276 34.0122 33.2421C32.5933 32.2854 30.6512 32.809 29.8261 34.2995L29.2223 35.387C28.4676 36.7465 28.8802 38.4585 30.1682 39.3145C32.4323 40.8049 35.1392 41.6709 38.0474 41.6709C45.7253 41.6709 52.4371 34.9842 52.4371 27.2704V2.59814H52.4271Z" fill="white"/>
<path d="M80.1903 49.9487C80.1903 48.2065 81.4884 46.9075 83.2091 46.9075C84.5676 46.9075 85.6343 47.703 86.0066 48.9215H85.272C84.9097 48.1159 84.1349 47.6225 83.1991 47.6225C81.901 47.6225 80.9249 48.6295 80.9249 49.9588C80.9249 51.2881 81.911 52.2951 83.1991 52.2951C84.1248 52.2951 84.8896 51.8016 85.2619 50.9658H86.0066C85.6242 52.2044 84.5374 53.0101 83.189 53.0101C81.4683 53.0101 80.1702 51.7009 80.1702 49.9688" fill="white"/>
<path d="M86.4895 49.9487C86.4895 48.1965 87.8077 46.9075 89.5687 46.9075C91.3297 46.9075 92.6479 48.2065 92.6479 49.9487C92.6479 51.6909 91.3297 52.9899 89.5687 52.9899C87.8077 52.9899 86.4895 51.6909 86.4895 49.9487ZM91.8932 49.9487C91.8932 48.5993 90.9071 47.6124 89.5687 47.6124C88.2304 47.6124 87.2442 48.5993 87.2442 49.9487C87.2442 51.2981 88.2304 52.285 89.5687 52.285C90.9071 52.285 91.8932 51.2981 91.8932 49.9487Z" fill="white"/>
<path d="M102.157 49.1531V52.8691H101.423V49.3646C101.423 48.2569 100.879 47.5721 99.9838 47.5721C99.0278 47.5721 98.2932 48.418 98.2932 49.566V52.859H97.5687V49.3546C97.5687 48.2468 97.0253 47.562 96.1297 47.562C95.1838 47.562 94.4392 48.4079 94.4392 49.556V52.8489H93.7046V47.0082H94.2379L94.3587 47.9044C94.7914 47.27 95.4857 46.8773 96.2807 46.8773C97.136 46.8773 97.7901 47.3405 98.092 48.0857C98.4945 47.3405 99.2492 46.8773 100.115 46.8773C101.332 46.8773 102.137 47.8037 102.137 49.1229" fill="white"/>
<path d="M112.059 49.1531V52.8691H111.325V49.3646C111.325 48.2569 110.781 47.5721 109.886 47.5721C108.93 47.5721 108.195 48.418 108.195 49.566V52.859H107.471V49.3546C107.471 48.2468 106.927 47.562 106.032 47.562C105.086 47.562 104.341 48.4079 104.341 49.556V52.8489H103.606V47.0082H104.14L104.261 47.9044C104.693 47.27 105.388 46.8773 106.183 46.8773C107.038 46.8773 107.692 47.3405 107.994 48.0857C108.396 47.3405 109.151 46.8773 110.016 46.8773C111.234 46.8773 112.039 47.8037 112.039 49.1229" fill="white"/>
<path d="M113.417 50.4119V47.0283H114.152V50.3012C114.152 51.5297 114.846 52.285 115.963 52.285C117.08 52.285 117.775 51.5197 117.775 50.3012V47.0283H118.509V50.4119C118.509 51.9728 117.523 53 115.963 53C114.404 53 113.417 51.9829 113.417 50.4119Z" fill="white"/>
<path d="M125.05 49.3848V52.8691H124.316V49.5459C124.316 48.2972 123.692 47.5721 122.605 47.5721C121.518 47.5721 120.693 48.4784 120.693 49.6063V52.859H119.958V47.0182H120.492L120.643 48.0555C121.075 47.3506 121.86 46.8974 122.796 46.8974C124.195 46.8974 125.06 47.9246 125.06 49.3747" fill="white"/>
<path d="M127.284 45.0143V45.9206H126.449V45.0143H127.284ZM127.234 47.0283V52.8691H126.499V47.0283H127.234Z" fill="white"/>
<path d="M128.3 49.9487C128.3 48.2065 129.598 46.9075 131.319 46.9075C132.678 46.9075 133.744 47.703 134.117 48.9215H133.382C133.02 48.1159 132.245 47.6225 131.309 47.6225C130.011 47.6225 129.035 48.6295 129.035 49.9588C129.035 51.2881 130.021 52.2951 131.309 52.2951C132.235 52.2951 133 51.8016 133.372 50.9658H134.117C133.734 52.2044 132.648 53.0101 131.299 53.0101C129.578 53.0101 128.28 51.7009 128.28 49.9688" fill="white"/>
<path d="M140.718 47.0283V52.8691H140.104L140.024 51.8218C139.49 52.5468 138.635 52.9899 137.619 52.9899C135.898 52.9899 134.61 51.6808 134.61 49.9487C134.61 48.2166 135.898 46.9075 137.619 46.9075C138.645 46.9075 139.5 47.3606 140.034 48.0857L140.134 47.0283H140.728H140.718ZM139.963 49.9487C139.963 48.6093 138.997 47.6124 137.659 47.6124C136.321 47.6124 135.344 48.6194 135.344 49.9487C135.344 51.278 136.331 52.285 137.659 52.285C138.987 52.285 139.963 51.2981 139.963 49.9487Z" fill="white"/>
<path d="M145.206 52.1944V52.8792H144.481C143.284 52.8792 142.539 52.134 142.539 50.9255V47.703H141.533V47.562L143.143 45.9005H143.264V47.0384H145.156V47.703H143.264V50.8953C143.264 51.7211 143.727 52.1944 144.562 52.1944H145.196H145.206Z" fill="white"/>
<path d="M146.876 45.0143V45.9206H146.041V45.0143H146.876ZM146.826 47.0283V52.8691H146.091V47.0283H146.826Z" fill="white"/>
<path d="M147.893 49.9487C147.893 48.1965 149.211 46.9075 150.972 46.9075C152.733 46.9075 154.051 48.2065 154.051 49.9487C154.051 51.6909 152.733 52.9899 150.972 52.9899C149.211 52.9899 147.893 51.6909 147.893 49.9487ZM153.296 49.9487C153.296 48.5993 152.31 47.6124 150.972 47.6124C149.633 47.6124 148.647 48.5993 148.647 49.9487C148.647 51.2981 149.633 52.285 150.972 52.285C152.31 52.285 153.296 51.2981 153.296 49.9487Z" fill="white"/>
<path d="M160.209 49.3848V52.8691H159.475V49.5459C159.475 48.2972 158.851 47.5721 157.764 47.5721C156.677 47.5721 155.852 48.4784 155.852 49.6063V52.859H155.118V47.0182H155.651L155.802 48.0555C156.235 47.3506 157.02 46.8974 157.955 46.8974C159.354 46.8974 160.22 47.9246 160.22 49.3747" fill="white"/>
<path d="M161.155 51.1471H161.88C161.94 51.9023 162.574 52.3152 163.48 52.3152C164.385 52.3152 165.009 51.9124 165.009 51.2679C165.009 50.4824 164.214 50.3314 163.369 50.1904C162.363 50.0192 161.276 49.8178 161.276 48.559C161.276 47.5822 162.141 46.9075 163.429 46.9075C164.718 46.9075 165.553 47.5822 165.593 48.6597H164.899C164.858 47.9649 164.315 47.5721 163.419 47.5721C162.524 47.5721 161.99 47.9548 161.99 48.5389C161.99 49.2438 162.715 49.3646 163.55 49.4955C164.567 49.6567 165.744 49.8581 165.744 51.2377C165.744 52.3052 164.838 53 163.47 53C162.101 53 161.236 52.285 161.175 51.1471" fill="white"/>
</svg>
