<svg width="40" height="41" viewBox="0 0 40 41" fill="none" xmlns="http://www.w3.org/2000/svg">
<circle cx="20" cy="20.5" r="19" stroke="#970000" stroke-width="2"/>
<path d="M26.4793 19.4239L19.2186 11.8544C19.0832 11.7133 18.9225 11.6013 18.7456 11.5249C18.5687 11.4485 18.3791 11.4092 18.1876 11.4092C17.8009 11.4092 17.43 11.5693 17.1566 11.8544C17.0212 11.9956 16.9138 12.1631 16.8405 12.3476C16.7672 12.532 16.7295 12.7297 16.7295 12.9293C16.7295 13.3324 16.8831 13.7191 17.1566 14.0041L23.4008 20.4988L17.1566 26.9934C17.0205 27.1342 16.9125 27.3016 16.8387 27.4861C16.765 27.6706 16.7271 27.8685 16.7271 28.0683C16.7271 28.2682 16.765 28.466 16.8387 28.6505C16.9125 28.835 17.0205 29.0024 17.1566 29.1432C17.2916 29.2851 17.4522 29.3977 17.6292 29.4746C17.8061 29.5514 17.9959 29.591 18.1876 29.591C18.3793 29.591 18.5691 29.5514 18.7461 29.4746C18.923 29.3977 19.0836 29.2851 19.2186 29.1432L26.4793 21.5737C26.6154 21.4329 26.7235 21.2655 26.7972 21.081C26.8709 20.8965 26.9089 20.6987 26.9089 20.4988C26.9089 20.2989 26.8709 20.1011 26.7972 19.9166C26.7235 19.7321 26.6154 19.5647 26.4793 19.4239Z" fill="#970000"/>
</svg>
