<svg width="102" height="56" viewBox="0 0 102 56" fill="none" xmlns="http://www.w3.org/2000/svg">
<path d="M24.546 39.945C25.8209 38.0414 26.3414 35.9782 26.6495 33.8405C26.7557 33.128 26.7982 32.3942 26.862 31.671C26.9788 30.4054 28.0518 29.4058 29.316 29.427C29.6985 29.4377 30.0915 29.4908 30.4634 29.5866C31.8338 29.9375 32.4712 31.235 31.8444 32.5112C30.7608 34.7339 29.6029 36.9247 28.5511 39.1687C28.0518 40.2322 27.6587 41.3595 27.3294 42.4974C27.1276 43.2206 26.8726 43.7843 26.0971 43.9863C25.2366 44.2097 24.4292 44.1671 23.7811 43.4971C23.5155 43.2206 23.2818 42.8909 23.1437 42.54C22.4851 40.8809 21.8689 39.2006 21.2421 37.5309C20.934 36.7226 20.6259 35.9144 20.286 35.1167C20.0098 34.4574 19.7548 34.4255 19.3192 34.9785C18.4693 36.0845 17.6301 37.2118 16.8121 38.3391C15.7178 39.8599 14.3261 39.9982 12.9663 38.7114C11.9358 37.7436 11.3728 36.4993 11.0647 35.1593C10.1511 31.1818 9.27994 27.183 8.39818 23.1949C8.19634 22.3016 7.94137 21.4083 7.80326 20.5043C7.56955 18.9728 8.73814 17.8136 10.2998 17.9412C10.6716 17.9732 11.0435 17.9625 11.4153 17.9519C12.8388 17.8987 13.8375 18.6219 14.1243 20.0257C14.2943 20.8765 14.3474 21.7486 14.4324 22.61C14.6555 24.7795 14.8892 26.9384 15.091 29.108C15.2185 30.4693 15.3035 31.8305 15.4098 33.1812C15.431 33.3939 15.4735 33.6066 15.5054 33.8193C15.5585 33.8299 15.601 33.8405 15.6541 33.8512C15.7497 33.7236 15.8559 33.5959 15.9303 33.4577C16.6421 32.139 17.3645 30.8202 18.055 29.4802C18.5437 28.5337 19.2342 27.9807 20.3285 28.0977C21.3696 28.204 22.0389 28.8527 22.2832 29.7993C22.6444 31.1818 22.8569 32.6069 23.1437 34.0107C23.4731 35.6804 23.8024 37.3395 24.1423 39.0091C24.2167 39.3282 24.3973 39.6047 24.546 39.945ZM9.65177 20.2171C9.09934 22.0995 10.8416 26.7896 12.382 27.6191C12.2545 27.3319 12.0315 27.0873 11.9358 26.8002C11.4578 25.29 10.8097 23.833 10.8204 22.1952C10.831 21.3657 10.3423 20.7489 9.65177 20.2171Z" fill="#970000"/>
<path d="M30.2087 40.0939C30.0706 38.2753 30.4956 36.4354 31.6429 34.8083C33.4383 32.2452 36.0304 31.1073 39.0582 31.0009C44.1362 30.8308 48.1732 34.2552 49.055 39.36C49.2887 40.7 49.3205 42.0294 49.1187 43.3801C48.5556 47.2087 45.018 49.8036 41.969 50.229C40.3861 50.4523 38.7926 50.5055 37.2203 50.1971C34.0863 49.5803 32.1635 47.5277 30.9205 44.7307C30.2831 43.3056 30.1662 41.7848 30.2087 40.0939ZM42.1709 37.2968C42.1709 36.6694 42.1709 36.2014 42.1709 35.7441C42.1709 34.5318 42.1709 34.5318 41.0023 34.6168C39.7487 34.7019 38.4951 34.787 37.2522 34.8614C36.8803 34.8827 36.6041 34.9678 36.5616 35.4145C36.2429 38.6581 35.9242 41.8912 35.5949 45.1348C35.5524 45.5283 35.7117 45.7517 36.0623 45.8474C36.9866 46.0813 37.9002 46.3791 38.8351 46.5174C40.0037 46.6769 41.1829 46.7301 42.3621 46.7726C42.8189 46.7939 43.0951 46.5493 42.9039 46.0175C42.8402 45.8367 42.8189 45.6347 42.8083 45.4432C42.5852 42.6782 42.3727 39.9024 42.1709 37.2968Z" fill="#970000"/>
<path d="M55.2485 33.798C55.1954 34.8722 55.1529 35.9569 55.1104 37.0311C55.0998 37.265 55.0892 37.499 55.121 37.7223C55.1423 37.8819 55.2166 38.1052 55.3335 38.169C55.4291 38.2115 55.6841 38.0946 55.7691 37.9776C56.1621 37.4352 56.5446 36.8822 56.9058 36.3185C57.5432 35.3188 58.085 34.2447 58.8287 33.3407C60.8153 30.9372 63.4924 30.1609 66.5095 30.3523C66.6157 30.3629 66.7432 30.3629 66.8176 30.4161C67.0619 30.5969 67.285 30.8096 67.5188 31.001C67.3382 31.1925 67.1788 31.469 66.9557 31.5647C64.0342 32.8196 61.7608 34.8828 59.7742 37.3076C59.4342 37.7223 59.0836 38.1158 58.7224 38.4987C58.4781 38.7646 58.4568 39.0198 58.7012 39.2963C60.3585 41.2106 61.9201 43.2206 64.0661 44.6244C65.0222 45.2519 66.0846 45.7198 67.0726 46.2835C67.285 46.4111 67.4338 46.6557 67.6144 46.8472C67.4125 47.0386 67.2213 47.3789 67.0088 47.4002C66.0846 47.464 65.1391 47.5384 64.2254 47.4108C63.418 47.3045 62.6319 46.9641 61.8564 46.677C60.0822 46.0176 58.8287 44.7733 57.9575 43.1036C57.5751 42.3698 57.1395 41.6573 56.6827 40.966C56.4808 40.6576 56.2046 40.3917 55.9284 40.1578C55.5566 39.8493 55.3972 39.9557 55.2591 40.413C54.3774 43.1781 54.3243 46.0602 54.1543 48.921C54.1118 49.5803 53.7825 50.0377 53.0813 50.1972C51.6684 50.5269 50.2342 50.463 48.8106 50.2397C48.2157 50.144 47.8864 49.4953 48.0563 48.804C48.3751 47.4853 48.7469 46.1665 49.0975 44.8584C49.3949 43.6992 49.6605 42.5187 49.9898 41.3595C50.6166 39.1581 50.5316 36.946 50.0536 34.7339C49.8624 33.8406 49.6074 32.9472 49.3524 32.0752C49.1293 31.2988 49.3099 30.8202 50.0854 30.5863C51.5303 30.1609 53.0176 30.1502 54.4942 30.3842C54.9829 30.4586 55.1954 30.8309 55.1954 31.3094C55.206 32.139 55.1954 32.9791 55.1954 33.8087C55.2166 33.798 55.2273 33.798 55.2485 33.798Z" fill="#970000"/>
<path d="M62.3658 50.7607C62.164 50.9096 61.9834 51.1117 61.7603 51.1861C59.3381 52.0794 56.9478 53.0579 54.4831 53.8236C50.4993 55.0572 46.3986 55.472 42.2341 55.4614C35.8281 55.4401 29.9426 53.6321 24.259 50.7501C19.6377 48.4104 15.7814 45.1348 12.0738 41.6252C11.7763 41.3381 11.5213 41.0084 11.2451 40.7C11.2876 40.6256 11.3407 40.5511 11.3832 40.4873C26.7449 52.0263 43.7958 55.0147 62.3021 50.6118C62.3339 50.6544 62.3446 50.7075 62.3658 50.7607Z" fill="white"/>
<path d="M65.5531 36.4566C65.2875 36.1482 65.4362 35.7972 65.6593 35.542C65.9993 35.1485 66.3817 34.7444 66.8173 34.4679C69.3988 32.8407 72.1185 31.4688 74.9974 30.4797C78.6732 29.2142 82.3808 28.0656 86.0778 26.8426C88.4257 26.0662 90.7416 25.2048 93.1107 24.4816C95.0442 23.886 97.0414 23.5245 99.0705 23.8754C99.761 23.9924 100.43 24.2476 101.078 24.5135C101.62 24.7368 102.066 25.1516 101.992 25.811C101.918 26.4703 101.386 26.7575 100.823 26.8851C99.9416 27.0872 99.0599 27.2361 98.1675 27.353C90.1042 28.3634 82.3596 30.5648 74.7531 33.3512C72.6284 34.1275 70.4612 34.7656 68.3152 35.4782C67.4122 35.7866 66.5304 36.1163 65.5531 36.4566ZM94.2474 26.3108C94.258 26.3746 94.2686 26.4491 94.2686 26.5129C95.6497 26.2789 97.0414 26.0556 98.4225 25.7791C98.6137 25.7365 98.7624 25.4813 98.9324 25.3218C98.7412 25.2048 98.5499 24.9921 98.3481 24.9814C97.3495 24.9389 96.3296 24.8857 95.3416 24.9814C94.4174 25.0665 93.5144 25.3218 92.6113 25.5451C92.452 25.5876 92.3564 25.8642 92.2289 26.0237C92.3989 26.1194 92.5582 26.2789 92.7282 26.2896C93.2169 26.3427 93.7268 26.3108 94.2474 26.3108Z" fill="white"/>
<path d="M26.3947 26.7576C26.3947 26.5449 26.3628 26.3322 26.3947 26.1302C26.8197 23.7054 27.2765 21.2912 27.6695 18.8771C27.9139 17.3776 27.3827 16.0163 26.8197 14.6656C26.6497 14.2615 26.4797 13.8467 26.2779 13.4533C25.2261 11.3794 25.2474 9.23117 25.7892 7.04036C26.4372 4.41352 27.7439 2.1589 29.6455 0.25524C29.773 0.12762 29.9855 0.0850799 30.1661 0C30.1555 0.180795 30.1661 0.372224 30.1342 0.542384C29.4649 3.62653 28.4982 6.67877 29.0081 9.90117C29.125 10.6243 29.3693 11.3369 29.688 11.9963C30.2298 13.1342 30.8035 14.2509 31.0053 15.5058C31.3347 17.5265 30.9416 19.4514 30.1767 21.3125C29.3906 23.2268 28.3495 24.9922 26.9046 26.4811C26.7878 26.5981 26.6603 26.7044 26.5434 26.8214C26.4797 26.7895 26.4372 26.7789 26.3947 26.7576Z" fill="white"/>
<path d="M38.2182 17.9943C39.4718 17.9943 40.7254 18.0049 41.979 17.9836C42.4358 17.973 42.627 18.1112 42.5739 18.5898C42.5314 19.0152 42.5314 19.4406 42.542 19.866C42.5526 20.2914 42.3508 20.4403 41.9471 20.3659C41.639 20.3127 41.3203 20.2489 41.0016 20.2276C40.2048 20.1744 39.918 20.419 39.9074 21.206C39.8755 23.4925 39.8649 25.7791 39.8542 28.055C39.8542 28.8207 39.6949 29.0121 38.93 28.9696C38.3457 28.9377 37.772 28.8419 37.1983 28.7569C36.7522 28.6931 36.5184 28.4484 36.5291 27.9592C36.614 25.9918 36.6672 24.0349 36.7628 22.0675C36.8159 21.0359 36.8159 20.9933 35.7642 20.9827C35.2861 20.9827 34.808 20.9614 34.33 20.9827C33.9263 21.004 33.7457 20.8657 33.7563 20.4403C33.7882 19.7703 33.7988 19.0897 33.7882 18.4197C33.7775 18.0155 33.9688 17.9092 34.3406 17.9092C35.6261 17.9198 36.9221 17.9092 38.2076 17.9092C38.2182 17.9624 38.2182 17.9836 38.2182 17.9943Z" fill="white"/>
<path d="M46.5902 21.7589C47.2595 21.5037 47.8438 21.1952 48.4599 21.0676C49.4798 20.8656 50.3191 21.4824 50.5315 22.4927C50.6059 22.8224 50.6271 23.1627 50.6271 23.4924C50.6378 25.0451 50.6272 26.6085 50.6484 28.1612C50.659 28.6823 50.4678 28.9056 49.9366 28.9056C49.5542 28.895 49.1611 28.9694 48.7786 28.9801C48.3006 28.9907 48.0031 28.7461 48.0987 28.2675C48.4068 26.7361 47.9925 25.2365 47.8756 23.737C47.865 23.5988 47.6525 23.4711 47.5251 23.3435C47.5144 23.3329 47.4932 23.3435 47.4719 23.3435C46.1015 23.2372 46.0165 23.3116 46.0165 24.6835C46.0165 25.7683 46.0165 26.8424 46.0378 27.9272C46.0484 28.4058 45.8784 28.6185 45.3897 28.5759C45.0604 28.544 44.7204 28.5653 44.3805 28.5334C43.7218 28.4696 43.5837 28.3207 43.605 27.6613C43.6368 26.7467 43.7324 25.8215 43.7324 24.9069C43.7112 23.0351 43.6368 21.1527 43.5837 19.2809C43.5731 19.0363 43.5518 18.7811 43.5625 18.5365C43.5731 18.1749 43.7643 17.9728 44.1361 18.0048C44.8054 18.0579 45.4747 18.1217 46.144 18.1855C46.4839 18.2175 46.6221 18.4089 46.6114 18.7598C46.5902 19.6106 46.6008 20.4614 46.5902 21.3122C46.5902 21.4718 46.5902 21.6419 46.5902 21.7589Z" fill="white"/>
<path d="M60.0928 26.4282C59.6572 27.9277 58.6267 28.7891 57.1713 28.9912C55.6415 29.2039 54.2498 28.9699 53.0918 27.8639C51.8382 26.6621 51.902 25.2051 52.3163 23.7269C52.6988 22.3337 53.6443 21.4723 55.0891 21.1957C57.9468 20.6427 60.0821 22.238 60.2203 25.0562C60.2521 25.6199 60.1353 25.7582 59.5722 25.7688C58.2124 25.7794 56.8526 25.7794 55.4928 25.7794C55.1528 25.7794 54.8022 25.7582 54.8022 26.2793C54.8022 27.045 54.9297 27.2258 55.5246 27.247C55.8433 27.2577 56.162 27.2364 56.4807 27.247C56.8844 27.2577 57.235 27.2471 57.2669 26.7047C57.2775 26.609 57.4475 26.4388 57.5537 26.4388C58.3611 26.4282 59.2004 26.4282 60.0928 26.4282ZM56.1727 22.8335C56.1196 22.8335 55.9602 22.8442 55.8008 22.8548C55.259 22.8973 55.0466 23.2058 55.2484 23.695C55.3228 23.8758 55.5034 24.0991 55.6627 24.131C56.1514 24.2161 56.6614 24.248 57.1607 24.2267C57.2563 24.2267 57.4475 23.897 57.4263 23.7481C57.2456 22.791 57.235 22.791 56.1727 22.8335Z" fill="white"/>
<path d="M20.9447 26.2151C21.2103 24.8113 21.4547 23.4713 21.7309 22.1206C21.9327 21.1529 21.869 20.2382 21.3803 19.3449C19.5849 16.0481 20.0524 12.9639 22.7295 10.2839C22.8889 10.1244 23.0695 10.0074 23.2394 9.86914C23.2819 9.89041 23.3138 9.92232 23.3563 9.94359C23.3138 10.0925 23.2607 10.252 23.2288 10.4009C22.9526 12.0387 22.602 13.6658 22.4427 15.3036C22.3789 15.9204 22.6127 16.6755 22.9526 17.2073C24.2274 19.1748 24.0362 21.1635 23.2607 23.1948C22.8251 24.3434 22.0602 25.2686 21.1678 26.0981C21.1253 26.1513 21.051 26.1726 20.9447 26.2151Z" fill="white"/>
<path d="M6.86829 35.776C5.22163 35.1167 3.59623 34.4892 2.3214 33.2662C1.64149 32.6068 1.03594 31.8517 0.536634 31.0541C-0.132652 29.9906 -0.143276 28.8208 0.324162 27.6403C0.82347 26.3854 1.67336 25.3644 2.56574 24.386C2.6401 24.3009 2.93756 24.2796 3.02255 24.3647C3.59623 24.8539 3.67059 25.7047 3.2244 26.3109C2.04518 27.9168 2.15142 30.5117 3.57498 32.0113C4.37175 32.8514 5.32787 33.5321 6.25212 34.2446C6.8258 34.6806 7.03827 35.0529 6.86829 35.776Z" fill="white"/>
<path d="M69.0908 45.8686C69.1546 45.1135 69.4414 44.6775 69.9832 44.4435C70.3232 44.2946 70.6844 44.2202 71.0456 44.1351C73.0215 43.6884 74.1264 42.4548 74.307 40.4235C74.3814 39.6152 74.3495 38.7963 74.3707 37.9881C74.392 37.3819 74.5301 36.8395 75.1675 36.4885C75.8687 38.7219 76.3361 40.9446 75.5075 43.2098C74.8594 44.9752 73.5315 45.8579 71.6617 45.8792C70.8225 45.8792 69.9832 45.8686 69.0908 45.8686Z" fill="white"/>
</svg>
