<svg width="153" height="84" viewBox="0 0 153 84" fill="none" xmlns="http://www.w3.org/2000/svg">
<path d="M36.819 59.9175C38.7313 57.0621 39.5121 53.9673 39.9743 50.7608C40.1336 49.692 40.1974 48.5913 40.293 47.5065C40.4683 45.6082 42.0777 44.1086 43.974 44.1405C44.5477 44.1565 45.1373 44.2363 45.6951 44.3798C47.7507 44.9063 48.7068 46.8525 47.7667 48.7668C46.1412 52.1008 44.4043 55.387 42.8267 58.753C42.0777 60.3483 41.4881 62.0392 40.9941 63.7461C40.6913 64.8309 40.3089 65.6764 39.1456 65.9795C37.8549 66.3145 36.6438 66.2507 35.6717 65.2457C35.2733 64.8309 34.9227 64.3364 34.7156 63.81C33.7276 61.3214 32.8033 58.8009 31.8631 56.2963C31.401 55.0839 30.9389 53.8716 30.429 52.6751C30.0146 51.6861 29.6322 51.6382 28.9788 52.4677C27.704 54.1268 26.4451 55.8178 25.2181 57.5087C23.5768 59.7899 21.4892 59.9973 19.4495 58.0671C17.9038 56.6154 17.0592 54.7489 16.5971 52.7389C15.2266 46.7727 13.9199 40.7746 12.5973 34.7924C12.2945 33.4524 11.9121 32.1124 11.7049 30.7564C11.3543 28.4593 13.1072 26.7204 15.4497 26.9119C16.0074 26.9597 16.5652 26.9438 17.1229 26.9278C19.2583 26.8481 20.7562 27.9328 21.1864 30.0386C21.4414 31.3148 21.5211 32.6229 21.6486 33.915C21.9832 37.1693 22.3338 40.4077 22.6366 43.662C22.8278 45.7039 22.9553 47.7458 23.1146 49.7718C23.1465 50.0908 23.2102 50.4099 23.258 50.7289C23.3377 50.7449 23.4015 50.7608 23.4811 50.7768C23.6246 50.5853 23.7839 50.3939 23.8955 50.1865C24.9631 48.2084 26.0467 46.2303 27.0825 44.2203C27.8156 42.8005 28.8514 41.971 30.4927 42.1465C32.0544 42.306 33.0583 43.2791 33.4248 44.6989C33.9666 46.7727 34.2853 48.9103 34.7156 51.0161C35.2096 53.5206 35.7036 56.0092 36.2135 58.5137C36.3251 58.9923 36.596 59.4071 36.819 59.9175ZM14.4777 30.3257C13.649 33.1493 16.2624 40.1843 18.573 41.4286C18.3818 40.9979 18.0472 40.631 17.9038 40.2003C17.1867 37.935 16.2146 35.7495 16.2305 33.2929C16.2465 32.0486 15.5135 31.1233 14.4777 30.3257Z" fill="#B61414"/>
<path d="M45.3121 60.1411C45.1049 57.4133 45.7423 54.6535 47.4634 52.2128C50.1564 48.3682 54.0447 46.6613 58.5863 46.5018C66.2034 46.2465 72.2588 51.3832 73.5815 59.0404C73.932 61.0504 73.9798 63.0445 73.6771 65.0705C72.8325 70.8134 67.526 74.7058 62.9526 75.3439C60.5782 75.6789 58.1879 75.7586 55.8294 75.296C51.1285 74.3708 48.2442 71.2919 46.3798 67.0964C45.4236 64.9588 45.2484 62.6776 45.3121 60.1411ZM63.2553 55.9456C63.2553 55.0044 63.2553 54.3025 63.2553 53.6166C63.2553 51.798 63.2553 51.798 61.5024 51.9256C59.6221 52.0532 57.7417 52.1809 55.8773 52.2925C55.3195 52.3244 54.9052 52.4521 54.8415 53.1221C54.3634 57.9876 53.8853 62.8371 53.3913 67.7026C53.3276 68.2929 53.5666 68.6279 54.0925 68.7714C55.4789 69.1224 56.8493 69.5691 58.2516 69.7764C60.0045 70.0157 61.7733 70.0955 63.5422 70.1593C64.2274 70.1912 64.6417 69.8243 64.3549 69.0267C64.2593 68.7555 64.2274 68.4524 64.2115 68.1652C63.8768 64.0176 63.5581 59.854 63.2553 55.9456Z" fill="#B61414"/>
<path d="M82.8718 50.697C82.7921 52.3082 82.7284 53.9354 82.6646 55.5466C82.6487 55.8976 82.6328 56.2485 82.6806 56.5835C82.7124 56.8228 82.824 57.1578 82.9993 57.2535C83.1427 57.3173 83.5251 57.1418 83.6526 56.9664C84.2422 56.1528 84.8159 55.3233 85.3577 54.4778C86.3138 52.9783 87.1265 51.3671 88.242 50.0111C91.2219 46.4058 95.2376 45.2413 99.7633 45.5284C99.9226 45.5444 100.114 45.5444 100.225 45.6242C100.592 45.8954 100.927 46.2144 101.277 46.5015C101.006 46.7887 100.767 47.2035 100.433 47.347C96.0504 49.2294 92.6402 52.3242 89.6603 55.9614C89.1503 56.5835 88.6245 57.1738 88.0827 57.748C87.7162 58.1469 87.6843 58.5297 88.0508 58.9445C90.5367 61.8159 92.8792 64.8309 96.0982 66.9367C97.5323 67.8779 99.1259 68.5798 100.608 69.4253C100.927 69.6167 101.15 69.9836 101.421 70.2707C101.118 70.5579 100.831 71.0684 100.512 71.1003C99.1259 71.196 97.7076 71.3076 96.3372 71.1162C95.1261 70.9567 93.9469 70.4462 92.7836 70.0155C90.1224 69.0264 88.242 67.16 86.9353 64.6555C86.3616 63.5547 85.7083 62.4859 85.0231 61.449C84.7203 60.9864 84.306 60.5876 83.8917 60.2366C83.3339 59.774 83.0949 59.9335 82.8877 60.6195C81.5651 64.7671 81.4854 69.0903 81.2305 73.3815C81.1667 74.3705 80.6727 75.0565 79.621 75.2958C77.5016 75.7903 75.3503 75.6946 73.215 75.3596C72.3226 75.216 71.8286 74.2429 72.0835 73.206C72.5616 71.2279 73.1193 69.2498 73.6452 67.2876C74.0914 65.5488 74.4898 63.7781 74.9838 62.0393C75.924 58.7371 75.7965 55.419 75.0794 52.1009C74.7926 50.7609 74.4101 49.4209 74.0277 48.1127C73.693 46.9482 73.9639 46.2304 75.1272 45.8794C77.2944 45.2413 79.5254 45.2253 81.7404 45.5763C82.4734 45.688 82.7921 46.2463 82.7921 46.9642C82.8081 48.2085 82.7921 49.4687 82.7921 50.713C82.824 50.697 82.8399 50.697 82.8718 50.697Z" fill="#B61414"/>
<path d="M93.5492 76.1411C93.2464 76.3644 92.9755 76.6675 92.6409 76.7792C89.0076 78.1192 85.4222 79.5868 81.7252 80.7354C75.7494 82.5859 69.5983 83.208 63.3517 83.192C53.7426 83.1601 44.9144 80.4482 36.389 76.1251C29.4571 72.6156 23.6726 67.7022 18.1111 62.4379C17.6649 62.0072 17.2825 61.5126 16.8682 61.05C16.9319 60.9383 17.0116 60.8267 17.0753 60.731C40.1179 78.0394 65.6942 82.522 93.4536 75.9177C93.5014 75.9815 93.5173 76.0613 93.5492 76.1411Z" fill="white"/>
<path d="M98.3301 54.6853C97.9317 54.2226 98.1548 53.6962 98.4895 53.3133C98.9994 52.7231 99.5731 52.1169 100.226 51.7021C104.099 49.2614 108.178 47.2036 112.497 45.72C118.01 43.8216 123.572 42.0988 129.117 40.2642C132.639 39.0997 136.113 37.8075 139.666 36.7228C142.567 35.8294 145.563 35.287 148.606 35.8135C149.642 35.989 150.646 36.3718 151.618 36.7706C152.431 37.1056 153.1 37.7278 152.988 38.7168C152.877 39.7059 152.08 40.1366 151.236 40.328C149.913 40.6311 148.59 40.8545 147.252 41.0299C135.157 42.5454 123.54 45.8476 112.13 50.0271C108.943 51.1917 105.692 52.1488 102.473 53.2176C101.119 53.6803 99.7962 54.1748 98.3301 54.6853ZM141.372 39.4666C141.387 39.5623 141.403 39.674 141.403 39.7697C143.475 39.4187 145.563 39.0837 147.634 38.669C147.921 38.6052 148.144 38.2223 148.399 37.983C148.112 37.8075 147.825 37.4885 147.523 37.4725C146.025 37.4087 144.495 37.329 143.013 37.4725C141.627 37.6002 140.272 37.983 138.918 38.318C138.678 38.3818 138.535 38.7966 138.344 39.0359C138.599 39.1795 138.838 39.4187 139.093 39.4347C139.826 39.5145 140.591 39.4666 141.372 39.4666Z" fill="white"/>
<path d="M39.5916 40.1364C39.5916 39.8174 39.5438 39.4983 39.5916 39.1952C40.229 35.5581 40.9142 31.9369 41.5038 28.3156C41.8703 26.0663 41.0736 24.0244 40.229 21.9985C39.974 21.3923 39.7191 20.7701 39.4163 20.1799C37.8387 17.0692 37.8706 13.8468 38.6833 10.5605C39.6553 6.62028 41.6154 3.23835 44.4678 0.382859C44.659 0.19143 44.9777 0.12762 45.2486 0C45.2327 0.271192 45.2486 0.558337 45.2008 0.813576C44.1969 5.43979 42.7468 10.0182 43.5117 14.8518C43.687 15.9365 44.0535 17.0053 44.5315 17.9944C45.3442 19.7013 46.2048 21.3763 46.5075 23.2587C47.0015 26.2897 46.4119 29.1771 45.2646 31.9688C44.0854 34.8402 42.5237 37.4883 40.3565 39.7217C40.1812 39.8971 39.99 40.0567 39.8147 40.2321C39.7191 40.1843 39.6553 40.1683 39.5916 40.1364Z" fill="white"/>
<path d="M57.3283 26.9914C59.2087 26.9914 61.089 27.0073 62.9694 26.9754C63.6546 26.9595 63.9415 27.1669 63.8618 27.8847C63.7981 28.5228 63.798 29.1609 63.814 29.799C63.8299 30.4371 63.5271 30.6605 62.9216 30.5488C62.4595 30.469 61.9814 30.3733 61.5034 30.3414C60.3082 30.2616 59.8779 30.6286 59.862 31.809C59.8142 35.2388 59.7983 38.6686 59.7823 42.0824C59.7823 43.231 59.5433 43.5182 58.396 43.4543C57.5195 43.4065 56.659 43.2629 55.7985 43.1353C55.1292 43.0396 54.7786 42.6727 54.7946 41.9389C54.922 38.9877 55.0017 36.0524 55.1451 33.1012C55.2248 31.5538 55.2248 31.49 53.6472 31.474C52.9301 31.474 52.213 31.4421 51.4959 31.474C50.8904 31.5059 50.6195 31.2986 50.6354 30.6605C50.6832 29.6555 50.6992 28.6345 50.6832 27.6295C50.6673 27.0233 50.9541 26.8638 51.5119 26.8638C53.4401 26.8797 55.3842 26.8638 57.3124 26.8638C57.3283 26.9435 57.3283 26.9754 57.3283 26.9914Z" fill="white"/>
<path d="M69.8848 32.6384C70.8887 32.2555 71.7652 31.7929 72.6894 31.6014C74.2192 31.2983 75.4781 32.2236 75.7968 33.7391C75.9084 34.2336 75.9402 34.7441 75.9402 35.2386C75.9562 37.5677 75.9402 39.9127 75.9721 42.2417C75.988 43.0234 75.7012 43.3584 74.9044 43.3584C74.3308 43.3425 73.7412 43.4541 73.1675 43.4701C72.4504 43.486 72.0042 43.1191 72.1476 42.4013C72.6097 40.1041 71.9883 37.8548 71.813 35.6055C71.797 35.3981 71.4783 35.2067 71.2871 35.0153C71.2712 34.9993 71.2393 35.0153 71.2074 35.0153C69.1518 34.8557 69.0243 34.9674 69.0243 37.0253C69.0243 38.6524 69.0243 40.2636 69.0562 41.8908C69.0721 42.6087 68.8171 42.9277 68.0841 42.8639C67.5901 42.816 67.0802 42.8479 66.5702 42.8001C65.5822 42.7044 65.3751 42.481 65.407 41.492C65.4548 40.1201 65.5982 38.7322 65.5982 37.3603C65.5663 34.5527 65.4548 31.7291 65.3751 28.9214C65.3591 28.5545 65.3273 28.1717 65.3432 27.8048C65.3591 27.2624 65.646 26.9593 66.2037 27.0071C67.2076 27.0869 68.2116 27.1826 69.2155 27.2783C69.7254 27.3262 69.9326 27.6133 69.9167 28.1398C69.8848 29.416 69.9007 30.6922 69.8848 31.9683C69.8848 32.2076 69.8848 32.4629 69.8848 32.6384Z" fill="white"/>
<path d="M90.1382 39.6422C89.4848 41.8915 87.9391 43.1837 85.7559 43.4868C83.4613 43.8058 81.3737 43.4549 79.6368 41.7958C77.7564 39.9932 77.852 37.8077 78.4735 35.5903C79.0472 33.5005 80.4654 32.2084 82.6326 31.7936C86.9192 30.9641 90.1222 33.357 90.3294 37.5844C90.3772 38.4298 90.2019 38.6372 89.3573 38.6532C87.3176 38.6691 85.2779 38.6691 83.2382 38.6691C82.7282 38.6691 82.2024 38.6372 82.2024 39.4189C82.2024 40.5675 82.3936 40.8387 83.286 40.8706C83.764 40.8865 84.2421 40.8546 84.7201 40.8706C85.3257 40.8865 85.8516 40.8706 85.8994 40.057C85.9153 39.9134 86.1703 39.6582 86.3296 39.6582C87.5407 39.6422 88.7996 39.6422 90.1382 39.6422ZM84.258 34.2503C84.1784 34.2503 83.9393 34.2663 83.7003 34.2822C82.8876 34.346 82.5689 34.8086 82.8716 35.5424C82.9832 35.8136 83.2541 36.1486 83.4931 36.1965C84.2262 36.3241 84.9911 36.372 85.74 36.3401C85.8834 36.3401 86.1703 35.8455 86.1384 35.6222C85.8675 34.1865 85.8516 34.1865 84.258 34.2503Z" fill="white"/>
<path d="M31.4171 39.3227C31.8155 37.2169 32.182 35.2069 32.5963 33.181C32.8991 31.7293 32.8035 30.3574 32.0705 29.0174C29.3774 24.0721 30.0785 19.4459 34.0943 15.4259C34.3333 15.1866 34.6042 15.0111 34.8592 14.8037C34.9229 14.8356 34.9707 14.8835 35.0345 14.9154C34.9707 15.1387 34.891 15.378 34.8432 15.6013C34.4289 18.058 33.903 20.4987 33.664 22.9554C33.5684 23.8807 33.919 25.0133 34.4289 25.8109C36.3412 28.7621 36.0543 31.7452 34.891 34.7922C34.2377 36.515 33.0903 37.9029 31.7518 39.1472C31.688 39.227 31.5765 39.2589 31.4171 39.3227Z" fill="white"/>
<path d="M10.3024 53.6641C7.83245 52.675 5.39434 51.7338 3.48209 49.8993C2.46223 48.9102 1.55391 47.7776 0.804951 46.5812C-0.198978 44.9859 -0.214914 43.2312 0.486243 41.4604C1.23521 39.578 2.51004 38.0466 3.84861 36.579C3.96016 36.4513 4.40635 36.4194 4.53383 36.5471C5.39434 37.2809 5.50589 38.5571 4.8366 39.4664C3.06777 41.8752 3.22713 45.7676 5.36247 48.0169C6.55762 49.2771 7.99181 50.2981 9.37818 51.3669C10.2387 52.021 10.5574 52.5793 10.3024 53.6641Z" fill="white"/>
<path d="M103.637 68.8032C103.732 67.6706 104.163 67.0166 104.975 66.6656C105.485 66.4423 106.027 66.3306 106.569 66.203C109.533 65.533 111.19 63.6825 111.461 60.6356C111.573 59.4232 111.525 58.1948 111.557 56.9824C111.588 56.0732 111.796 55.2596 112.752 54.7332C113.803 58.0832 114.505 61.4172 113.262 64.8151C112.29 67.4632 110.298 68.7873 107.493 68.8192C106.234 68.8192 104.975 68.8032 103.637 68.8032Z" fill="white"/>
</svg>
