<svg width="44" height="44" viewBox="0 0 44 44" fill="none" xmlns="http://www.w3.org/2000/svg">
<path d="M43.642 21.9234C43.642 9.98597 33.9768 0.320801 22.0394 0.320801C10.1019 0.320801 0.436768 9.98597 0.436768 21.9234C0.436768 32.7087 8.34173 41.6378 18.679 43.27V28.1642H13.1743V21.9234H18.679V17.1548C18.679 11.7462 21.8794 8.76982 26.808 8.76982C29.1762 8.76982 31.6405 9.18588 31.6405 9.18588V14.4985H28.9202C26.2319 14.4985 25.3998 16.1627 25.3998 17.8589V21.9234H31.3845L30.4244 28.1642H25.3998V43.27C35.737 41.6378 43.642 32.7087 43.642 21.9234Z" fill="#970000"/>
<path d="M30.4562 28.1639L31.4163 21.9231H25.3996V17.8586C25.3996 16.1624 26.2317 14.4982 28.92 14.4982H31.6403V9.18558C31.6403 9.18558 29.176 8.76953 26.8077 8.76953C21.8791 8.76953 18.6787 11.7459 18.6787 17.1545V21.9231H13.1741V28.1639H18.6787V43.2697C19.7669 43.4297 20.919 43.5257 22.0391 43.5257C23.1913 43.5257 24.3114 43.4297 25.3996 43.2697V28.1639H30.4562Z" fill="white"/>
</svg>
