<svg width="44" height="44" viewBox="0 0 44 44" fill="none" xmlns="http://www.w3.org/2000/svg">
<path d="M22.0394 43.871C33.9702 43.871 43.642 34.1992 43.642 22.2684C43.642 10.3376 33.9702 0.665771 22.0394 0.665771C10.1086 0.665771 0.436768 10.3376 0.436768 22.2684C0.436768 34.1992 10.1086 43.871 22.0394 43.871Z" fill="#970000"/>
<path d="M22.0394 11.1308C25.6558 11.1308 26.1039 11.1308 27.5441 11.1948C28.8562 11.2588 29.5923 11.4828 30.0724 11.6749C30.7125 11.9309 31.1605 12.2189 31.6406 12.699C32.1206 13.1791 32.4087 13.6271 32.6647 14.2672C32.8567 14.7472 33.0807 15.4513 33.1447 16.7955C33.2088 18.2357 33.2088 18.6517 33.2088 22.3002C33.2088 25.9486 33.2088 26.3647 33.1447 27.8048C33.0807 29.117 32.8567 29.8531 32.6647 30.3331C32.4087 30.9732 32.1206 31.4213 31.6406 31.9013C31.1605 32.3814 30.7125 32.6694 30.0724 32.9254C29.5923 33.1175 28.8882 33.3415 27.5441 33.4055C26.1039 33.4695 25.6878 33.4695 22.0394 33.4695C18.423 33.4695 17.9749 33.4695 16.5347 33.4055C15.2226 33.3415 14.4865 33.1175 14.0064 32.9254C13.3663 32.6694 12.9183 32.3814 12.4382 31.9013C11.9582 31.4213 11.6701 30.9732 11.4141 30.3331C11.2221 29.8531 10.9981 29.149 10.9341 27.8048C10.87 26.3647 10.87 25.9486 10.87 22.3002C10.87 18.6517 10.87 18.2357 10.9341 16.7955C10.9981 15.4833 11.2221 14.7472 11.4141 14.2672C11.6701 13.6271 11.9582 13.1791 12.4382 12.699C12.9183 12.2189 13.3663 11.9309 14.0064 11.6749C14.4865 11.4828 15.1906 11.2588 16.5347 11.1948C17.9749 11.1308 18.423 11.1308 22.0394 11.1308ZM22.0394 8.6665C18.3589 8.6665 17.8789 8.6665 16.4387 8.76252C14.9985 8.82652 14.0064 9.05055 13.1423 9.40259C12.2462 9.75464 11.4781 10.2027 10.742 10.9708C9.97393 11.7389 9.52588 12.475 9.17384 13.3711C8.8218 14.2352 8.59777 15.2273 8.53376 16.6675C8.46975 18.1076 8.43774 18.5877 8.43774 22.2682C8.43774 25.9486 8.43775 26.4287 8.53376 27.8688C8.59777 29.309 8.8218 30.3011 9.17384 31.1652C9.52588 32.0613 9.97393 32.8294 10.742 33.5655C11.5101 34.3336 12.2462 34.7817 13.1423 35.1337C14.0064 35.4858 14.9985 35.7098 16.4387 35.7738C17.8789 35.8378 18.3589 35.8698 22.0394 35.8698C25.7198 35.8698 26.1999 35.8698 27.6401 35.7738C29.0802 35.7098 30.0724 35.4858 30.9365 35.1337C31.8326 34.7817 32.6007 34.3336 33.3368 33.5655C34.1049 32.7974 34.5529 32.0613 34.905 31.1652C35.257 30.3011 35.481 29.309 35.545 27.8688C35.609 26.4287 35.641 25.9486 35.641 22.2682C35.641 18.5877 35.641 18.1076 35.545 16.6675C35.481 15.2273 35.257 14.2352 34.905 13.3711C34.5529 12.475 34.1049 11.7069 33.3368 10.9708C32.5687 10.2027 31.8326 9.75464 30.9365 9.40259C30.0724 9.05055 29.0802 8.82652 27.6401 8.76252C26.1999 8.6665 25.7518 8.6665 22.0394 8.6665Z" fill="white"/>
<path d="M22.0393 15.2915C18.1669 15.2915 15.0625 18.4279 15.0625 22.2683C15.0625 26.1088 18.1989 29.2452 22.0393 29.2452C25.9118 29.2452 29.0162 26.1088 29.0162 22.2683C29.0162 18.4279 25.9118 15.2915 22.0393 15.2915ZM22.0393 26.8129C19.543 26.8129 17.4948 24.7967 17.4948 22.2683C17.4948 19.74 19.511 17.7238 22.0393 17.7238C24.5356 17.7238 26.5839 19.74 26.5839 22.2683C26.5839 24.7967 24.5676 26.8129 22.0393 26.8129Z" fill="white"/>
<path d="M29.3043 16.6357C30.2057 16.6357 30.9365 15.905 30.9365 15.0035C30.9365 14.1021 30.2057 13.3713 29.3043 13.3713C28.4029 13.3713 27.6721 14.1021 27.6721 15.0035C27.6721 15.905 28.4029 16.6357 29.3043 16.6357Z" fill="white"/>
</svg>
