<svg width="44" height="44" viewBox="0 0 44 44" fill="none" xmlns="http://www.w3.org/2000/svg">
<path d="M21.6026 43.2052C33.5334 43.2052 43.2052 33.5334 43.2052 21.6026C43.2052 9.67182 33.5334 0 21.6026 0C9.67183 0 0 9.67182 0 21.6026C0 33.5334 9.67183 43.2052 21.6026 43.2052Z" fill="#970000"/>
<path d="M33.7003 14.4658C33.7003 14.3378 33.7003 14.3378 33.5723 14.3378C33.2523 14.3378 32.9322 14.3058 32.6442 14.2418C31.5241 14.0818 27.8436 12.1616 27.2355 8.99317C27.2355 8.92917 27.0755 8.16107 27.0755 7.80903C27.0755 7.64901 27.0755 7.64901 26.9155 7.64901C26.8835 7.64901 26.8515 7.64901 26.8195 7.64901C25.3793 7.64901 23.9391 7.64901 22.531 7.64901C22.2429 7.64901 22.2749 7.617 22.2749 7.90504C22.2749 14.1138 22.2749 20.3546 22.2749 26.5633C22.2749 26.7873 22.2749 27.0114 22.2429 27.2674C22.0189 28.4835 21.4108 29.4116 20.3547 30.0517C19.4586 30.5958 18.4665 30.7558 17.4424 30.5638C17.1223 30.4998 16.8023 30.3718 16.4822 30.2437C16.4502 30.2117 16.4182 30.2117 16.4182 30.1797C16.3222 30.0837 16.1942 30.0197 16.0982 29.9557C14.786 29.0276 14.146 27.7474 14.338 26.1473C14.53 24.5151 15.4581 23.4269 16.9943 22.8509C17.4424 22.6908 17.9224 22.6268 18.4345 22.6268C18.7545 22.6588 19.0746 22.6908 19.3626 22.7548C19.4586 22.7868 19.5226 22.7548 19.5226 22.6268C19.5226 22.5948 19.5226 22.5628 19.5226 22.4988C19.5226 21.3787 19.4906 18.9464 19.4906 18.9464C19.4906 18.6263 19.4906 18.3063 19.4906 17.9863C19.4906 17.8903 19.4586 17.8903 19.3626 17.8582C18.7865 17.7942 18.2104 17.7622 17.6344 17.8262C16.8343 17.8902 16.0662 18.0503 15.2981 18.3383C14.082 18.7864 13.0258 19.4584 12.0977 20.3546C11.2976 21.1226 10.6895 22.0187 10.2415 23.0109C9.79344 23.971 9.5694 24.9951 9.5054 26.0192C9.47339 26.4673 9.47339 26.9474 9.5374 27.3954C9.60141 28.0355 9.72942 28.6436 9.92145 29.2516C10.4655 30.9798 11.4896 32.42 12.8978 33.5401C13.0578 33.6682 13.1858 33.7962 13.3459 33.8602C13.4099 33.9242 13.5059 33.9882 13.5699 34.0522C13.7939 34.2122 14.0499 34.3722 14.306 34.5003C15.9062 35.3004 17.5704 35.6204 19.3626 35.3964C21.6669 35.1083 23.5871 34.0842 25.0913 32.356C26.4995 30.6918 27.2035 28.7716 27.2035 26.5953C27.2355 23.4909 27.2035 20.3866 27.2035 17.3142C27.2035 17.2502 27.1715 17.1222 27.2355 17.0902C27.2995 17.0581 27.3636 17.1542 27.4276 17.1862C28.5797 17.9543 29.8279 18.4983 31.172 18.7864C31.9401 18.9784 32.7402 19.0744 33.5403 19.0744C33.7963 19.0744 33.8283 19.0744 33.8283 18.8184C33.7643 17.7622 33.7003 14.7539 33.7003 14.4658Z" fill="white"/>
</svg>
