<svg width="44" height="45" viewBox="0 0 44 45" fill="none" xmlns="http://www.w3.org/2000/svg">
<path d="M22.0394 44.0436C33.9702 44.0436 43.642 34.3718 43.642 22.441C43.642 10.5102 33.9702 0.838379 22.0394 0.838379C10.1086 0.838379 0.436768 10.5102 0.436768 22.441C0.436768 34.3718 10.1086 44.0436 22.0394 44.0436Z" fill="#970000"/>
<path d="M35.8332 15.5282C35.5131 14.2801 34.521 13.32 33.2729 12.9679C31.0326 12.3599 22.0075 12.3599 22.0075 12.3599C22.0075 12.3599 13.0144 12.3599 10.7421 12.9679C9.49396 13.288 8.53384 14.2801 8.1818 15.5282C7.57373 17.7685 7.57373 22.4731 7.57373 22.4731C7.57373 22.4731 7.57373 27.1456 8.1818 29.4179C8.50184 30.6661 9.49396 31.6262 10.7421 31.9782C12.9824 32.5863 22.0075 32.5863 22.0075 32.5863C22.0075 32.5863 31.0006 32.5863 33.2729 31.9782C34.521 31.6582 35.4811 30.6661 35.8332 29.4179C36.4412 27.1777 36.4412 22.4731 36.4412 22.4731C36.4412 22.4731 36.4412 17.7685 35.8332 15.5282ZM19.1591 26.7616V18.1206L26.648 22.4411L19.1591 26.7616Z" fill="white"/>
</svg>
